<svg width="11" height="15" viewBox="0 0 11 15" fill="none" xmlns="http://www.w3.org/2000/svg">
<g clip-path="url(#clip0_18_827)">
<path d="M10.3939 11.7036C10.3939 12.2733 10.231 12.7609 9.90515 13.1665C9.57931 13.5721 9.18624 13.7749 8.72595 13.7749H2.05408C1.59835 13.7749 1.20756 13.5721 0.881714 13.1665C0.555868 12.7609 0.392944 12.2733 0.392944 11.7036C0.392944 11.2616 0.415731 10.8434 0.461304 10.4492C0.506877 10.055 0.588908 9.65853 0.707397 9.25977C0.825887 8.861 0.978556 8.51921 1.16541 8.23438C1.35225 7.94954 1.59835 7.71826 1.90369 7.54053C2.20903 7.36279 2.55766 7.27393 2.94958 7.27393C3.64229 7.94385 4.45577 8.27881 5.39001 8.27881C6.32882 8.27881 7.14457 7.94385 7.83728 7.27393C8.22921 7.27393 8.57784 7.36279 8.88318 7.54053C9.18852 7.71826 9.43461 7.94954 9.62146 8.23438C9.80831 8.51921 9.96098 8.861 10.0795 9.25977C10.198 9.65853 10.28 10.055 10.3256 10.4492C10.3711 10.8434 10.3939 11.2616 10.3939 11.7036ZM7.50916 2.65625C7.50916 2.65625 7.65613 2.80265 7.95007 3.09546C8.24402 3.38826 8.39099 3.94938 8.39099 4.77881C8.39099 5.60824 8.09705 6.31576 7.50916 6.90137C6.92126 7.48698 6.21488 7.77979 5.39001 7.77979C4.56514 7.77979 3.8599 7.48698 3.27429 6.90137C2.68868 6.31576 2.39587 5.60824 2.39587 4.77881C2.39587 3.94938 2.68868 3.24186 3.27429 2.65625C3.8599 2.07064 4.56514 1.77783 5.39001 1.77783C6.21488 1.77783 6.92126 2.07064 7.50916 2.65625Z" fill="#333333"/>
</g>
<defs>
<clipPath id="clip0_18_827">
<rect width="10" height="14" fill="white" transform="matrix(1 0 0 -1 0.390015 14.7798)"/>
</clipPath>
</defs>
</svg>
