<svg width="35" height="35" viewBox="0 0 35 35" fill="none" xmlns="http://www.w3.org/2000/svg">
<rect x="0.949951" y="0.860107" width="34" height="34" rx="5" fill="#CD1818"/>
<g clip-path="url(#clip0_18_1052)">
<path d="M26.6696 8.96558C26.8981 9.12964 26.9889 9.34351 26.942 9.60718L24.3668 25.0408C24.3434 25.2341 24.2379 25.3835 24.0504 25.489C23.9625 25.5417 23.8571 25.5681 23.734 25.5681C23.6637 25.5681 23.5846 25.5535 23.4967 25.5242L18.944 23.6609L16.5182 26.6228C16.3893 26.781 16.2252 26.8601 16.026 26.8601C15.9498 26.8601 15.8737 26.8455 15.7975 26.8162C15.6686 26.7751 15.566 26.6975 15.4899 26.5833C15.4137 26.469 15.3756 26.3445 15.3756 26.2097V22.7117L24.0592 12.0681L13.319 21.3582L9.35511 19.7322C9.23792 19.6853 9.1427 19.6135 9.06946 19.5168C8.99622 19.4202 8.95667 19.3074 8.95081 19.1785C8.93909 18.9207 9.04749 18.7244 9.276 18.5896L25.984 8.948C26.0778 8.8894 26.1862 8.86011 26.3092 8.86011C26.4557 8.86011 26.5758 8.89526 26.6696 8.96558Z" fill="white"/>
</g>
<defs>
<clipPath id="clip0_18_1052">
<rect width="18" height="18" fill="white" transform="matrix(1 0 0 -1 8.94995 26.8601)"/>
</clipPath>
</defs>
</svg>
