<svg width="15" height="15" viewBox="0 0 15 15" fill="none" xmlns="http://www.w3.org/2000/svg">
<g clip-path="url(#clip0_18_831)">
<path d="M10.8741 4.7685C10.8741 4.7685 10.9966 4.92174 11.2416 5.22821C11.4865 5.53469 11.609 6.05023 11.609 6.77484C11.609 7.49945 11.3641 8.16824 10.8741 8.78119C10.3842 9.39415 9.71773 9.8795 8.87463 10.2372C8.03153 10.595 7.11096 10.7739 6.11292 10.7739C5.67086 10.7739 5.21057 10.7329 4.73206 10.6508C4.08492 11.1065 3.36259 11.4392 2.56506 11.6489C2.38277 11.6944 2.15719 11.7377 1.88831 11.7788H1.8678C1.80855 11.7788 1.75387 11.7571 1.70374 11.7138C1.65361 11.6705 1.62398 11.617 1.61487 11.5532C1.61031 11.5349 1.60803 11.5167 1.60803 11.4985C1.60803 11.4802 1.60917 11.4643 1.61145 11.4506C1.61373 11.437 1.61943 11.421 1.62854 11.4028C1.63765 11.3845 1.64449 11.3709 1.64905 11.3618C1.65361 11.3526 1.66272 11.339 1.67639 11.3207C1.69006 11.3025 1.69918 11.29 1.70374 11.2831C1.70829 11.2763 1.71969 11.2626 1.73792 11.2421C1.75614 11.2216 1.76754 11.2091 1.77209 11.2045C1.79488 11.1772 1.85527 11.1122 1.95325 11.0097C2.05123 10.9072 2.11959 10.8308 2.15833 10.7807C2.19706 10.7306 2.25403 10.6565 2.32922 10.5585C2.40442 10.4606 2.4705 10.3592 2.52747 10.2543C2.58443 10.1495 2.63798 10.0356 2.68811 9.91254C2.04553 9.53884 1.53853 9.07742 1.16711 8.52826C0.795695 7.97911 0.609985 7.39464 0.609985 6.77484C0.609985 6.05023 0.85494 5.38145 1.34485 4.7685C1.83476 4.15554 2.5024 3.67019 3.34778 3.31244C4.19316 2.95469 5.11487 2.77582 6.11292 2.77582C7.11096 2.77582 8.03153 2.95469 8.87463 3.31244C9.71773 3.67019 10.3842 4.15554 10.8741 4.7685ZM14.61 8.77777C14.61 9.40212 14.4254 9.9866 14.0563 10.5312C13.6871 11.0758 13.179 11.5349 12.5319 11.9086C12.582 12.0317 12.6344 12.1456 12.6891 12.2504C12.7438 12.3552 12.811 12.4589 12.8907 12.5615C12.9705 12.664 13.0275 12.7369 13.0616 12.7802C13.0958 12.8235 13.1653 12.901 13.2701 13.0126C13.375 13.1243 13.4342 13.1892 13.4479 13.2075C13.4524 13.2166 13.465 13.2314 13.4855 13.2519C13.506 13.2724 13.5185 13.2861 13.5231 13.2929C13.5276 13.2997 13.539 13.3146 13.5573 13.3373C13.5755 13.3601 13.5846 13.3761 13.5846 13.3852C13.5846 13.3943 13.5903 13.4103 13.6017 13.433C13.6131 13.4558 13.6165 13.4741 13.6119 13.4877C13.6074 13.5014 13.6051 13.5219 13.6051 13.5493C13.5869 13.6222 13.5527 13.6803 13.5026 13.7236C13.4524 13.7669 13.3955 13.784 13.3317 13.7748C13.0218 13.7293 12.7962 13.6883 12.6549 13.6518C11.8574 13.4422 11.1351 13.1095 10.4879 12.6538C10.0094 12.7358 9.54911 12.7768 9.10706 12.7768C7.69885 12.7768 6.47066 12.4327 5.42249 11.7446C5.80074 11.7674 6.03088 11.7788 6.11292 11.7788C6.95146 11.7788 7.75468 11.6614 8.52258 11.4267C9.29049 11.192 9.9775 10.8559 10.5836 10.4184C11.2353 9.94444 11.7355 9.39415 12.0841 8.76752C12.4327 8.14089 12.6071 7.47667 12.6071 6.77484C12.6071 6.37836 12.5478 5.98415 12.4293 5.59223C13.1038 5.96137 13.6359 6.42393 14.0255 6.97992C14.4152 7.53591 14.61 8.1352 14.61 8.77777Z" fill="#333333"/>
</g>
<defs>
<clipPath id="clip0_18_831">
<rect width="14" height="14" fill="white" transform="matrix(1 0 0 -1 0.609985 14.7798)"/>
</clipPath>
</defs>
</svg>
