<svg width="13" height="15" viewBox="0 0 13 15" fill="none" xmlns="http://www.w3.org/2000/svg">
<g clip-path="url(#clip0_18_823)">
<path d="M1.00049 13.7749H3.24951V11.5259H1.00049V13.7749ZM3.75537 13.7749H6.25049V11.5259H3.75537V13.7749ZM1.00049 11.0269H3.24951V8.5249H1.00049V11.0269ZM3.75537 11.0269H6.25049V8.5249H3.75537V11.0269ZM1.00049 8.02588H3.24951V5.77686H1.00049V8.02588ZM6.74951 13.7749H9.25146V11.5259H6.74951V13.7749ZM3.75537 8.02588H6.25049V5.77686H3.75537V8.02588ZM9.75049 13.7749H11.9995V11.5259H9.75049V13.7749ZM6.74951 11.0269H9.25146V8.5249H6.74951V11.0269ZM4.00146 4.27979V2.02393C4.00146 1.96012 3.9764 1.90316 3.92627 1.85303C3.87614 1.8029 3.81917 1.77783 3.75537 1.77783H3.24951C3.18571 1.77783 3.12874 1.8029 3.07861 1.85303C3.02848 1.90316 3.00342 1.96012 3.00342 2.02393V4.27979C3.00342 4.34359 3.02848 4.40055 3.07861 4.45068C3.12874 4.50081 3.18571 4.52588 3.24951 4.52588H3.75537C3.81917 4.52588 3.87614 4.50081 3.92627 4.45068C3.9764 4.40055 4.00146 4.34359 4.00146 4.27979ZM9.75049 11.0269H11.9995V8.5249H9.75049V11.0269ZM6.74951 8.02588H9.25146V5.77686H6.74951V8.02588ZM9.75049 8.02588H11.9995V5.77686H9.75049V8.02588ZM10.0034 4.27979V2.02393C10.0034 1.96012 9.97721 1.90316 9.9248 1.85303C9.8724 1.8029 9.81429 1.77783 9.75049 1.77783H9.25146C9.18766 1.77783 9.1307 1.8029 9.08057 1.85303C9.03044 1.90316 9.00537 1.96012 9.00537 2.02393V4.27979C9.00537 4.34359 9.03044 4.40055 9.08057 4.45068C9.1307 4.50081 9.18766 4.52588 9.25146 4.52588H9.75049C9.81429 4.52588 9.8724 4.50081 9.9248 4.45068C9.97721 4.40055 10.0034 4.34359 10.0034 4.27979ZM13.0044 3.77393V13.7749C13.0044 14.0483 12.9053 14.2842 12.707 14.4824C12.5088 14.6807 12.2729 14.7798 11.9995 14.7798H1.00049C0.727051 14.7798 0.49235 14.6807 0.296387 14.4824C0.100423 14.2842 0.00244141 14.0483 0.00244141 13.7749V3.77393C0.00244141 3.50049 0.100423 3.26579 0.296387 3.06982C0.49235 2.87386 0.727051 2.77588 1.00049 2.77588H2.00537V2.02393C2.00537 1.67757 2.12614 1.38363 2.36768 1.14209C2.60921 0.900553 2.90316 0.779785 3.24951 0.779785H3.75537C4.10173 0.779785 4.39567 0.900553 4.63721 1.14209C4.87874 1.38363 4.99951 1.67757 4.99951 2.02393V2.77588H8.00049V2.02393C8.00049 1.67757 8.1224 1.38363 8.36621 1.14209C8.61003 0.900553 8.90511 0.779785 9.25146 0.779785H9.75049C10.0968 0.779785 10.3919 0.900553 10.6357 1.14209C10.8796 1.38363 11.0015 1.67757 11.0015 2.02393V2.77588H11.9995C12.2729 2.77588 12.5088 2.87386 12.707 3.06982C12.9053 3.26579 13.0044 3.50049 13.0044 3.77393Z" fill="#333333"/>
</g>
<defs>
<clipPath id="clip0_18_823">
<rect width="13" height="14" fill="white" transform="matrix(1 0 0 -1 0 14.7798)"/>
</clipPath>
</defs>
</svg>
