<svg width="6" height="15" viewBox="0 0 6 15" fill="none" xmlns="http://www.w3.org/2000/svg">
<g clip-path="url(#clip0_18_1039)">
<path d="M5.47952 7.86011C5.47952 7.99683 5.43167 8.11304 5.33597 8.20874L1.83597 11.7087C1.73571 11.809 1.61722 11.8591 1.4805 11.8591C1.34378 11.8591 1.22643 11.8101 1.12845 11.7122C1.03047 11.6142 0.981476 11.4968 0.981476 11.3601V4.36011C0.981476 4.22339 1.03047 4.1049 1.12845 4.00464C1.22643 3.90438 1.34378 3.85425 1.4805 3.85425C1.61722 3.85425 1.73571 3.90438 1.83597 4.00464L5.33597 7.50464C5.43167 7.60034 5.47952 7.71883 5.47952 7.86011Z" fill="#333333"/>
</g>
<defs>
<clipPath id="clip0_18_1039">
<rect width="5" height="14" fill="white" transform="matrix(1 0 0 -1 0.980011 14.8601)"/>
</clipPath>
</defs>
</svg>
