<svg width="11" height="19" viewBox="0 0 11 19" fill="none" xmlns="http://www.w3.org/2000/svg">
<g clip-path="url(#clip0_18_901)">
<path d="M6.96936 9.21411C6.96936 9.21411 7.09534 9.08813 7.34729 8.83618C7.59924 8.58423 7.72522 8.10376 7.72522 7.39478C7.72522 6.68579 7.47327 6.07935 6.96936 5.57544C6.46545 5.07153 5.85901 4.81958 5.15002 4.81958C4.44104 4.81958 3.83606 5.07153 3.33508 5.57544C2.83411 6.07935 2.58362 6.68579 2.58362 7.39478C2.58362 8.10376 2.83411 8.71021 3.33508 9.21411C3.83606 9.71802 4.44104 9.96997 5.15002 9.96997C5.85901 9.96997 6.46545 9.71802 6.96936 9.21411ZM10.2916 7.39478C10.2916 8.13892 10.1832 8.7395 9.96643 9.19653L6.31018 16.9661C6.20471 17.1829 6.04651 17.3557 5.83557 17.4846C5.62463 17.6135 5.39612 17.678 5.15002 17.678C4.90393 17.678 4.67688 17.6135 4.46887 17.4846C4.26086 17.3557 4.10706 17.1829 4.00745 16.9661L0.342407 9.19653C0.119751 8.72778 0.00842285 8.1272 0.00842285 7.39478C0.00842285 6.46313 0.238403 5.60327 0.698364 4.81519C1.15833 4.0271 1.78235 3.40308 2.57043 2.94312C3.35852 2.48315 4.21838 2.25317 5.15002 2.25317C6.08167 2.25317 6.94153 2.48315 7.72961 2.94312C8.5177 3.40308 9.14172 4.0271 9.60168 4.81519C10.0616 5.60327 10.2916 6.46313 10.2916 7.39478Z" fill="#CD1818"/>
</g>
<defs>
<clipPath id="clip0_18_901">
<rect width="10.3" height="18" fill="white" transform="matrix(1 0 0 -1 0 18.97)"/>
</clipPath>
</defs>
</svg>
