<svg width="18" height="19" viewBox="0 0 18 19" fill="none" xmlns="http://www.w3.org/2000/svg">
<path d="M18 7.25806V15.2297C18 15.675 17.8433 16.0544 17.5298 16.3679C17.2163 16.6814 16.8369 16.8381 16.3916 16.8381H1.6084C1.16309 16.8381 0.783691 16.6814 0.470215 16.3679C0.156738 16.0544 0 15.675 0 15.2297V7.25806C0.269531 7.55688 0.606445 7.84692 1.01074 8.12817C3.29004 9.67505 4.9541 10.8323 6.00293 11.5999C6.37793 11.8811 6.68701 12.1008 6.93018 12.259C7.17334 12.4172 7.49268 12.5769 7.88818 12.738C8.28369 12.8992 8.65137 12.9797 8.99121 12.9797H9H9.00879C9.34863 12.9797 9.71631 12.8992 10.1118 12.738C10.5073 12.5769 10.8267 12.4172 11.0698 12.259C11.313 12.1008 11.6221 11.8811 11.9971 11.5999C13.2393 10.6975 14.9062 9.54028 16.998 8.12817C17.4023 7.84106 17.7363 7.55103 18 7.25806ZM18 4.30493C18 4.83228 17.8359 5.33765 17.5078 5.82104C17.1797 6.30444 16.7725 6.71606 16.2861 7.05591C14.042 8.60864 12.4746 9.69849 11.584 10.3254C11.5195 10.3723 11.3789 10.4749 11.1621 10.6331C10.9453 10.7913 10.7651 10.9172 10.6216 11.011C10.478 11.1047 10.3037 11.2117 10.0986 11.3318C9.89355 11.4519 9.69873 11.5427 9.51416 11.6042C9.32959 11.6658 9.16113 11.6965 9.00879 11.6965H9H8.99121C8.83887 11.6965 8.67041 11.6658 8.48584 11.6042C8.30127 11.5427 8.10645 11.4519 7.90137 11.3318C7.69629 11.2117 7.52197 11.1047 7.37842 11.011C7.23486 10.9172 7.05469 10.7913 6.83789 10.6331C6.62109 10.4749 6.48047 10.3723 6.41602 10.3254C5.58398 9.73364 4.02246 8.6438 1.73145 7.05591C1.31543 6.77466 0.922852 6.38794 0.553711 5.89575C0.18457 5.40356 0 4.94653 0 4.52466C0 4.00317 0.140625 3.56812 0.421875 3.21948C0.703125 2.87085 1.09863 2.69653 1.6084 2.69653H16.3916C16.8311 2.69653 17.209 2.85474 17.5254 3.17114C17.8418 3.48755 18 3.86548 18 4.30493Z" fill="#CD1818"/>
</svg>
