<svg width="40" height="71" viewBox="0 0 40 71" fill="none" xmlns="http://www.w3.org/2000/svg">
<rect y="0.829834" width="40" height="70" rx="3" fill="black" fill-opacity="0.3"/>
<g clip-path="url(#clip0_18_182)">
<path d="M23.4998 35.6853C23.4998 35.8025 23.4568 35.9041 23.3708 35.99L17.1248 42.2361C17.0388 42.322 16.9373 42.365 16.8201 42.365C16.6951 42.365 16.5896 42.322 16.5037 42.2361L15.8357 41.5564C15.7498 41.4705 15.7068 41.3689 15.7068 41.2517C15.7068 41.1345 15.7498 41.033 15.8357 40.947L21.0974 35.6853L15.8357 30.4236C15.7498 30.3376 15.7068 30.2322 15.7068 30.1072C15.7068 29.99 15.7498 29.8884 15.8357 29.8025L16.5037 29.1345C16.5974 29.0408 16.7029 28.9939 16.8201 28.9939C16.9294 28.9939 17.031 29.0408 17.1248 29.1345L23.3708 35.3689C23.4568 35.4548 23.4998 35.5603 23.4998 35.6853Z" fill="white"/>
</g>
<defs>
<clipPath id="clip0_18_182">
<rect width="8.58" height="24" fill="white" transform="matrix(1 0 0 -1 15.7 46.8298)"/>
</clipPath>
</defs>
</svg>
