<svg width="15" height="19" viewBox="0 0 15 19" fill="none" xmlns="http://www.w3.org/2000/svg">
<g clip-path="url(#clip0_18_980)">
<path d="M14.1508 13.1841C14.1508 13.3599 14.1186 13.5942 14.0541 13.8872C13.9897 14.1802 13.9194 14.4116 13.8432 14.5815C13.7787 14.7339 13.6674 14.8833 13.5092 15.0298C13.351 15.1763 13.2162 15.2847 13.1049 15.355C12.9936 15.4253 12.8295 15.522 12.6127 15.645C11.9975 15.9849 11.3764 16.1548 10.7495 16.1548C10.5737 16.1548 10.3979 16.1431 10.2221 16.1196C10.0463 16.0962 9.85443 16.0537 9.64642 15.9922C9.43842 15.9307 9.27582 15.8809 9.15863 15.8428C9.04144 15.8047 8.85687 15.7388 8.60492 15.645C8.35297 15.5513 8.1889 15.4897 8.11273 15.4604C7.4682 15.2319 6.88226 14.9536 6.35492 14.6255C5.50531 14.0981 4.62201 13.376 3.70502 12.459C2.78802 11.542 2.06586 10.6587 1.53851 9.80908C1.21039 9.28174 0.932068 8.6958 0.703552 8.05127C0.674255 7.9751 0.612732 7.81104 0.518982 7.55908C0.425232 7.30713 0.359314 7.12256 0.321228 7.00537C0.283142 6.88818 0.233337 6.72559 0.171814 6.51758C0.110291 6.30957 0.0678101 6.11768 0.0443726 5.94189C0.0209351 5.76611 0.00921631 5.59033 0.00921631 5.41455C0.00921631 4.7876 0.179138 4.1665 0.518982 3.55127C0.642029 3.33447 0.738708 3.17041 0.809021 3.05908C0.879333 2.94775 0.987732 2.81299 1.13422 2.65479C1.2807 2.49658 1.43011 2.38525 1.58246 2.3208C1.75238 2.24463 1.98383 2.17432 2.27679 2.10986C2.56976 2.04541 2.80414 2.01318 2.97992 2.01318C3.07367 2.01318 3.14398 2.02197 3.19086 2.03955C3.32562 2.08643 3.50433 2.34131 3.72699 2.8042C3.7973 2.93311 3.94379 3.19824 4.16644 3.59961C4.3891 4.00098 4.56488 4.31006 4.69379 4.52686C4.71722 4.56201 4.77582 4.64697 4.86957 4.78174C4.96332 4.9165 5.03363 5.03223 5.08051 5.12891C5.12738 5.22559 5.15082 5.3208 5.15082 5.41455C5.15082 5.54932 5.0556 5.71631 4.86517 5.91553C4.67474 6.11475 4.46674 6.29785 4.24115 6.46484C4.01556 6.63184 3.80756 6.80908 3.61713 6.99658C3.4267 7.18408 3.33148 7.33936 3.33148 7.4624C3.33148 7.51514 3.34027 7.5708 3.35785 7.62939C3.37543 7.68799 3.40179 7.75244 3.43695 7.82275C3.47211 7.89307 3.5014 7.95166 3.52484 7.99854C3.54828 8.04541 3.5849 8.10693 3.6347 8.18311C3.68451 8.25928 3.71527 8.30908 3.72699 8.33252C4.2309 9.24658 4.81244 10.0332 5.47162 10.6924C6.1308 11.3516 6.91742 11.9331 7.83148 12.437C7.85492 12.4487 7.90472 12.4795 7.9809 12.5293C8.05707 12.5791 8.11859 12.6157 8.16547 12.6392C8.21234 12.6626 8.27094 12.6919 8.34125 12.7271C8.41156 12.7622 8.47601 12.7886 8.53461 12.8062C8.5932 12.8237 8.64886 12.8325 8.7016 12.8325C8.82465 12.8325 8.97992 12.7373 9.16742 12.5469C9.35492 12.3564 9.53217 12.1484 9.69916 11.9229C9.86615 11.6973 10.0493 11.4893 10.2485 11.2988C10.4477 11.1084 10.6147 11.0132 10.7495 11.0132C10.8432 11.0132 10.9384 11.0366 11.0351 11.0835C11.1318 11.1304 11.2475 11.2007 11.3823 11.2944C11.517 11.3882 11.602 11.4468 11.6371 11.4702C11.8539 11.5991 12.163 11.7749 12.5644 11.9976C12.9658 12.2202 13.2309 12.3667 13.3598 12.437C13.8227 12.6597 14.0776 12.8384 14.1245 12.9731C14.142 13.02 14.1508 13.0903 14.1508 13.1841Z" fill="#CD1818"/>
</g>
<defs>
<clipPath id="clip0_18_980">
<rect width="14.16" height="18" fill="white" transform="matrix(1 0 0 -1 0 18.73)"/>
</clipPath>
</defs>
</svg>
