<svg width="40" height="71" viewBox="0 0 40 71" fill="none" xmlns="http://www.w3.org/2000/svg">
<g opacity="0.5">
<rect y="0.829834" width="40" height="70" rx="3" fill="black" fill-opacity="0.3"/>
<g clip-path="url(#clip0_18_178)">
<path d="M23.5115 30.1072C23.5115 30.2244 23.4646 30.3298 23.3708 30.4236L18.1091 35.6853L23.3708 40.947C23.4646 41.0408 23.5115 41.1423 23.5115 41.2517C23.5115 41.3611 23.4646 41.4626 23.3708 41.5564L22.7029 42.2361C22.6169 42.322 22.5154 42.365 22.3982 42.365C22.2732 42.365 22.1677 42.322 22.0818 42.2361L15.8474 35.99C15.7537 35.8962 15.7068 35.7947 15.7068 35.6853C15.7068 35.5681 15.7537 35.4626 15.8474 35.3689L22.0818 29.1345C22.1755 29.0408 22.281 28.9939 22.3982 28.9939C22.5076 28.9939 22.6091 29.0408 22.7029 29.1345L23.3708 29.8025C23.4646 29.8962 23.5115 29.9978 23.5115 30.1072Z" fill="white"/>
</g>
</g>
<defs>
<clipPath id="clip0_18_178">
<rect width="8.58" height="24" fill="white" transform="matrix(1 0 0 -1 15.7 46.8298)"/>
</clipPath>
</defs>
</svg>
